# xmcd
#
# Track frame offsets: 
#        150
#        20312
#        38619
#        66155
#        88974
#        113743
#        133857
#        149654
#        165053
#        185065
#        206928
#        229654
#        243573
#        264673
#
# Disc length: 3936 seconds
#
# Revision: 0
# Processed by: cddbd v1.5.2PL0 Copyright (c) Steve Scherf et al.
# Submitted via: ExactAudioCopy v0.99pb4
#
DISCID=cb0f5e0e
DTITLE=Van Manakas - American Guitar
DYEAR=2000
DGENRE=Country
TTITLE0=Jackalope
TTITLE1=Troubador
TTITLE2=El Dorado
TTITLE3=Desert Wind
TTITLE4=J. B.
TTITLE5=Honey
TTITLE6=Guitar Boogie
TTITLE7=Buck
TTITLE8=Guitarist's Prayer
TTITLE9=Ridge Runner
TTITLE10='Round The House
TTITLE11=Paddy On The Turnpike
TTITLE12=Low Rider
TTITLE13=Snake Church
EXTD=
EXTT0=
EXTT1=
EXTT2=
EXTT3=
EXTT4=
EXTT5=
EXTT6=
EXTT7=
EXTT8=
EXTT9=
EXTT10=
EXTT11=
EXTT12=
EXTT13=
PLAYORDER=
